<svg xmlns="http://www.w3.org/2000/svg" viewBox="0 0 394 394"><defs><style>.cls-1{isolation:isolate;}.cls-2{fill:none;stroke-miterlimit:10;stroke-width:24px;}.cls-2,.cls-3,.cls-7{stroke:#1a1a1a;}.cls-3{fill:#bbbdbf;stroke-width:3.08px;}.cls-3,.cls-7{stroke-linecap:round;stroke-linejoin:round;}.cls-4{fill:#fff;}.cls-5,.cls-8{mix-blend-mode:multiply;}.cls-6{fill:#929497;}.cls-7{fill:#fcb823;stroke-width:3px;}.cls-8{fill:#f9a126;}.cls-9{fill:#1a1a1a;}</style></defs><g class="cls-1"><g id="Layer_2" data-name="Layer 2"><g id="Layer_1-2" data-name="Layer 1"><circle class="cls-2" cx="197" cy="197" r="185"/><path class="cls-3" d="M265.29,91.62c-65.58-66.17-145.58-20.8-145.58,42.73v62a.92.92,0,0,0,.92.92h24.31a1.39,1.39,0,0,0,1.38-1.39V120.1a22.78,22.78,0,0,1,7.19-16.66c42-39.16,91.67-9.81,91.67,30.91v61.53a1.38,1.38,0,0,0,1.38,1.39h24.31a.92.92,0,0,0,.92-.92V107.68A22.78,22.78,0,0,0,265.29,91.62Z"/><path class="cls-4" d="M263.4,133.77a84.75,84.75,0,0,0-7.23-24.47,73.91,73.91,0,0,0-34.63-34.61,84.78,84.78,0,0,0-24.47-7.25,54.91,54.91,0,0,1,26.29,2.86,61.77,61.77,0,0,1,37.16,37.19A54.65,54.65,0,0,1,263.4,133.77Z"/><g class="cls-5"><path class="cls-6" d="M132.56,187.76c-1.7-.31-3.35-3.39-3.35-3.39V124.54s7.86-37.59,20.26-51c-18.36,13.74-30.27,35.65-31.66,60.29v59.83c1.39,1.7,4.47,1.72,4.47,1.72H142s3.09,0,2.43-1.72v-5.89Z"/><path class="cls-6" d="M257.14,187.76c-1.71-.31-2.46-3.39-2.46-3.39V124.54s-22.77-49.34-50-49.34a49.24,49.24,0,0,0-37.82,17.7,49.1,49.1,0,0,1,27.54-8.43c27.21,0,49.34,22.14,48.86,49.35v59.83c.48,1.7,3.57,1.72,3.57,1.72h19.7s3.09,0,3.34-1.72v-5.89Z"/></g><path class="cls-7" d="M273.45,311.33H118.05a13.55,13.55,0,0,1-13.55-13.55V188A13.54,13.54,0,0,1,118,174.46H273.46A13.54,13.54,0,0,1,287,188V297.78A13.55,13.55,0,0,1,273.45,311.33Z"/><path class="cls-4" d="M193.41,184.26c11.79-1.24,23.56-1.89,35.34-2.33,5.89-.28,11.78-.34,17.66-.51a73.86,73.86,0,0,0,8.83-1.26l4.43,3.8,2.2-3.8H263s.72,1.1,1.3,1.13a16.55,16.55,0,0,1,9.76,4.22,16.24,16.24,0,0,1,5.11,9.2,14.8,14.8,0,0,1,.23,2.64c0,.9,0,1.53,0,2.29l-.1,4.42c-.05,2.95-.16,5.89-.29,8.84-.44,11.78-1.1,23.54-2.35,35.33-1.25-11.79-1.91-23.55-2.35-35.33-.13-3-.23-5.89-.29-8.84l-.11-4.42c0-.7,0-1.54,0-2.12a11.21,11.21,0,0,0-.24-1.74,10.84,10.84,0,0,0-3.45-5.88,10.41,10.41,0,0,0-6.21-2.59A30,30,0,0,1,263,184h-1.1l-2.2,3.8h-4.43s-5.88-.58-8.83-.66c-5.88-.16-11.77-.22-17.66-.5C217,186.15,205.2,185.51,193.41,184.26Z"/><path class="cls-8" d="M139,294.22a13.55,13.55,0,0,1-13.55-13.54V176.36h-9.26A13.55,13.55,0,0,0,102.6,189.9V299.68a13.55,13.55,0,0,0,13.55,13.55h155.4a13.55,13.55,0,0,0,13.55-13.55v-5.46Z"/><path class="cls-9" d="M216,226.47c0-12.89-12.9-22.86-26.92-18.56a19.35,19.35,0,0,0-2.86,35.84V279h19V243.75A19.49,19.49,0,0,0,216,226.47Z"/></g></g></g></svg>